<?xml version="1.0" encoding="UTF-8"?>
<svg width="128px" height="128px" viewBox="0 0 128 128" version="1.1" xmlns="http://www.w3.org/2000/svg" xmlns:xlink="http://www.w3.org/1999/xlink">
    <title>Artboard Copy 2</title>
    <g id="Artboard-Copy-2" stroke="none" stroke-width="1" fill="none" fill-rule="evenodd" stroke-linecap="round" stroke-linejoin="round">
        <g id="Group" transform="translate(7.000000, 6.000000)" stroke="#000000" stroke-width="8">
            <path d="M75.6699739,90.6666667 C87.735486,89.2463218 99.5902628,86.4152754 110.988372,82.2322587 C101.335557,71.6010874 96.0017475,57.7821139 96.0230589,43.4597358 L96.0230589,38.9528003 L96.0230589,38.6308763 C96.0230589,17.2956324 78.6274753,0 57.1689355,0 C35.7103957,0 18.3148121,17.2956324 18.3148121,38.6308763 L18.3148121,43.4597358 C18.3343483,57.7829692 12.9981893,71.6020493 3.34302326,82.2322587 C14.5653892,86.3528855 26.3964698,89.2180088 38.6678971,90.6666667 M76.2209302,90.7704968 C64.0059934,92.2713942 51.6626112,92.2713942 39.4476744,90.7704968 M75.9640494,90.6666667 C78.5203502,98.6565541 75.6604838,107.386521 68.8743571,112.308509 C62.0882304,117.230497 52.9117696,117.230497 46.1256429,112.308509 C39.3395162,107.386521 36.4796498,98.6565541 39.0359506,90.6666667 M0,29.3333333 C1.82612918,18.4146115 6.69521013,8.24229826 14.0406977,0 M100.959302,0 C108.30479,8.24229826 113.173871,18.4146115 115,29.3333333" id="Shape"></path>
        </g>
    </g>
</svg>